Coordinates
version=1
nRows=16
nColumns=22
inDegrees=yes

Units are S.I. units (second, meters, Newtons, ...)
If the header above contains a line with 'inDegrees', this indicates whether rotational values are in degrees (yes) or radians (no).

endheader
time	pelvis_tilt	pelvis_list	pelvis_rotation	pelvis_tx	pelvis_ty	pelvis_tz	hip_flexion_r	hip_adduction_r	hip_rotation_r	knee_angle_r	ankle_angle_r	subtalar_angle_r	hip_flexion_l	hip_adduction_l	hip_rotation_l	knee_angle_l	ankle_angle_l	subtalar_angle_l	lumbar_extension	lumbar_bending	lumbar_rotation
      3.41000000	      0.70980334	      0.85982294	    179.03681195	      0.17732367	      1.01309786	      0.01649029	      4.89689353	      5.35194077	     -1.96097552	    -18.48768492	     13.07166818	     -4.02860411	     18.63668767	     -2.50600609	     -2.60391206	    -30.63906510	     12.17128705	      2.76973798	    -15.77622342	      0.47013952	      5.57630576
      3.42000000	      0.62718581	      0.94600610	    178.89496231	      0.17803227	      1.01331708	      0.01557952	      4.75719988	      5.49222838	     -1.85985052	    -18.30628741	     12.93807918	     -4.01947119	     18.30203920	     -2.62336645	     -2.47288852	    -31.35520259	     12.40065378	      2.67324586	    -15.68846591	      0.55259423	      5.59913509
      3.43000000	      0.54472412	      1.03664694	    178.73212219	      0.17863075	      1.01352394	      0.01467306	      4.60865960	      5.63619418	     -1.73285562	    -18.12350562	     12.80461993	     -4.00052202	     17.91970830	     -2.75178321	     -2.38055166	    -31.97113037	     12.64337296	      2.58157397	    -15.59369066	      0.63525863	      5.63611721
      3.44000000	      0.47306011	      1.12665236	    178.55320894	      0.17914530	      1.01369997	      0.01379259	      4.46744505	      5.77739145	     -1.58618091	    -17.94614354	     12.68289533	     -3.97439572	     17.50380642	     -2.88170013	     -2.32211093	    -32.47685208	     12.89405819	      2.50646607	    -15.48441010	      0.71733539	      5.67574227
      3.45000000	      0.38941251	      1.21373532	    178.36170097	      0.17955981	      1.01389642	      0.01293398	      4.29277091	      5.91274725	     -1.41658995	    -17.74349516	     12.55833157	     -3.93471800	     17.02348358	     -3.01257544	     -2.30805015	    -32.85110002	     13.12692396	      2.43386581	    -15.38621436	      0.79443097	      5.70557162
      3.46000000	      0.37512712	      1.31007043	    178.18058855	      0.17999130	      1.01392944	      0.01215111	      4.21984532	      6.05463809	     -1.26434250	    -17.59551438	     12.46822762	     -3.90794128	     16.60072895	     -3.13816960	     -2.25676589	    -33.13414219	     13.40553066	      2.41023785	    -15.21934295	      0.89279649	      5.71699322
      3.47000000	      0.31526326	      1.43156310	    177.97691224	      0.18028092	      1.01406078	      0.01133458	      4.05935895	      6.22022502	     -1.11724707	    -17.38910873	     12.34770899	     -3.85591809	     16.06531067	     -3.30713043	     -2.28989588	    -33.25440197	     13.59147966	      2.40060902	    -15.09955248	      1.00804269	      5.76329866
      3.48000000	      0.30268661	      1.55323980	    177.78611103	      0.18055706	      1.01407658	      0.01059649	      3.96443221	      6.38139991	     -0.98431747	    -17.21579728	     12.25073029	     -3.81264828	     15.55362590	     -3.46133258	     -2.29147306	    -33.25360515	     13.78277361	      2.42145713	    -14.93437550	      1.13499591	      5.77121585
      3.49000000	      0.31026384	      1.68387288	    177.59306296	      0.18077848	      1.01403736	      0.00989026	      3.89074096	      6.54884266	     -0.86363470	    -17.04846554	     12.15550160	     -3.77176773	     15.02571764	     -3.62150594	     -2.30217634	    -33.11376608	     13.93736411	      2.46326926	    -14.75040339	      1.27527535	      5.77370721
      3.50000000	      0.33454969	      1.81564224	    177.39817512	      0.18095574	      1.01394726	      0.00918749	      3.84128606	      6.71892012	     -0.73707644	    -16.90067801	     12.05788747	     -3.73400505	     14.47385703	     -3.77739938	     -2.30488039	    -32.82057068	     14.04830368	      2.51823966	    -14.55410799	      1.41349984	      5.75486122
      3.51000000	      0.33769043	      1.94930433	    177.19330683	      0.18101242	      1.01387482	      0.00854759	      3.75538261	      6.88029854	     -0.63876680	    -16.74038762	     11.98542987	     -3.69152464	     13.84841688	     -3.93214884	     -2.34204087	    -32.36489335	     14.08480068	      2.59623114	    -14.37978974	      1.56189768	      5.76484827
      3.52000000	      0.36076725	      2.08096099	    176.99245987	      0.18102388	      1.01373664	      0.00794090	      3.70234240	      7.03971764	     -0.53317700	    -16.60980117	     11.91947779	     -3.65566278	     13.20539980	     -4.07541257	     -2.35917570	    -31.75254676	     14.09174127	      2.66254641	    -14.18804272	      1.70868089	      5.75278839
      3.53000000	      0.39181855	      2.21135320	    176.79032955	      0.18096089	      1.01355309	      0.00737369	      3.66027559	      7.19529707	     -0.42623081	    -16.49429119	     11.86469003	     -3.62398248	     12.53254999	     -4.21584357	     -2.39473990	    -30.98729967	     14.07074277	      2.70590715	    -13.98908246	      1.85692263	      5.73835243
      3.54000000	      0.40736766	      2.34358405	    176.59290450	      0.18085021	      1.01335975	      0.00688356	      3.61365634	      7.34741691	     -0.32011461	    -16.41113737	     11.84128704	     -3.59549112	     11.80967640	     -4.34743314	     -2.42231100	    -30.07537511	     14.04185359	      2.71350624	    -13.81390245	      2.01422522	      5.71947764
      3.55000000	      0.44234189	      2.46222865	    176.39150949	      0.18067262	      1.01310758	      0.00642600	      3.59044243	      7.48462549	     -0.20205167	    -16.34013342	     11.81570886	     -3.57391155	     11.08368014	     -4.47088139	     -2.50168355	    -29.03677351	     14.01991452	      2.67334602	    -13.61379951	      2.15726129	      5.69507583
      3.56000000	      0.45192071	      2.58224268	    176.19808941	      0.18046049	      1.01286675	      0.00603364	      3.55202757	      7.61853688	     -0.08739077	    -16.29890204	     11.82060917	     -3.55740686	     10.31414320	     -4.59117425	     -2.59748651	    -27.88810342	     14.02367969	      2.56998614	    -13.45021694	      2.30438181	      5.66918785
